<svg xmlns="http://www.w3.org/2000/svg" viewBox="0 0 64 64" role="img" aria-label="SS Tours &amp; Travels">
  <rect width="64" height="64" rx="13" fill="#1c1c1c"/>
  <path d="M10 25C16 10 38 6 51 14c5 3 8 8 9 15" fill="none" stroke="#f7c600" stroke-width="4.3" stroke-linecap="round"/>
  <path d="M29 24H18c-3 0-5 1-6 4-1 3 1 5 4 5h7c4 0 5 2 4 5-1 3-4 5-8 5H8" fill="none" stroke="#fff" stroke-width="6.5" stroke-linecap="round" stroke-linejoin="round"/>
  <path d="M51 24H40c-3 0-5 1-6 4-1 3 1 5 4 5h7c4 0 5 2 4 5-1 3-4 5-8 5H30" fill="none" stroke="#fff" stroke-width="6.5" stroke-linecap="round" stroke-linejoin="round"/>
  <path d="M8 51h48" stroke="#fff" stroke-opacity=".8" stroke-width="2.2" stroke-linecap="round"/>
</svg>
